<svg fill="none" xmlns="http://www.w3.org/2000/svg" viewBox="148.58 13.6 638.67 144.8"> <g filter="url(#filter0_dddd_881_412)"> <path d="M148.576 156V13.6H164.776V110H165.376L206.776 58.8H224.976L192.376 97.8L229.376 156H211.376L182.976 109.2L164.776 130.4V156H148.576ZM284.884 158.4C277.017 158.4 269.617 156.4 262.684 152.4C255.884 148.4 250.35 142.6 246.084 135C241.95 127.4 239.884 118.267 239.884 107.6C239.884 96.6667 241.95 87.4 246.084 79.8C250.35 72.2 255.884 66.4 262.684 62.4C269.617 58.4 277.017 56.4 284.884 56.4C292.884 56.4 300.284 58.4 307.084 62.4C313.884 66.4 319.35 72.2 323.484 79.8C327.75 87.4 329.884 96.6667 329.884 107.6C329.884 118.267 327.75 127.4 323.484 135C319.35 142.6 313.884 148.4 307.084 152.4C300.284 156.4 292.884 158.4 284.884 158.4ZM284.884 144.8C293.284 144.8 300.017 141.4 305.084 134.6C310.284 127.667 312.884 118.667 312.884 107.6C312.884 96.4 310.284 87.3333 305.084 80.4C300.017 73.4667 293.284 70 284.884 70C276.617 70 269.884 73.4667 264.684 80.4C259.484 87.3333 256.884 96.4 256.884 107.6C256.884 118.667 259.484 127.667 264.684 134.6C269.884 141.4 276.617 144.8 284.884 144.8ZM358.482 156V58.8H372.082L373.482 72.8H374.082C378.749 68.1333 383.682 64.2667 388.882 61.2C394.082 58 400.015 56.4 406.682 56.4C416.949 56.4 424.415 59.6667 429.082 66.2C433.882 72.6 436.282 82 436.282 94.4V156H419.882V96.6C419.882 87.5333 418.415 80.9333 415.482 76.8C412.549 72.6667 407.882 70.6 401.482 70.6C396.549 70.6 392.082 71.8667 388.082 74.4C384.215 76.9333 379.815 80.6667 374.882 85.6V156H358.482ZM501.457 158.4C491.057 158.4 483.79 155.4 479.657 149.4C475.657 143.4 473.657 135.6 473.657 126V72.2H459.257V59.8L474.457 58.8L476.457 31.6H490.257V58.8H516.457V72.2H490.257V126.2C490.257 132.2 491.324 136.867 493.457 140.2C495.724 143.4 499.657 145 505.257 145C506.99 145 508.857 144.733 510.857 144.2C512.857 143.533 514.657 142.933 516.257 142.4L519.457 154.8C516.79 155.733 513.857 156.533 510.657 157.2C507.59 158 504.524 158.4 501.457 158.4ZM559.538 158.4C551.405 158.4 544.605 156 539.138 151.2C533.805 146.267 531.138 139.467 531.138 130.8C531.138 120.133 535.872 112 545.338 106.4C554.938 100.667 570.072 96.6667 590.738 94.4C590.738 90.2667 590.138 86.3333 588.938 82.6C587.872 78.8667 585.872 75.8667 582.938 73.6C580.138 71.2 576.072 70 570.738 70C565.138 70 559.872 71.0667 554.938 73.2C550.005 75.3333 545.605 77.7333 541.738 80.4L535.338 69C539.872 66.0667 545.405 63.2667 551.938 60.6C558.605 57.8 565.805 56.4 573.538 56.4C585.405 56.4 594.005 60.0667 599.338 67.4C604.672 74.6 607.338 84.2667 607.338 96.4V156H593.738L592.338 144.4H591.738C587.205 148.133 582.205 151.4 576.738 154.2C571.405 157 565.672 158.4 559.538 158.4ZM564.338 145.2C569.005 145.2 573.405 144.067 577.538 141.8C581.672 139.533 586.072 136.333 590.738 132.2V105.2C574.605 107.2 563.272 110.2 556.738 114.2C550.338 118.2 547.138 123.333 547.138 129.6C547.138 135.067 548.805 139.067 552.138 141.6C555.472 144 559.538 145.2 564.338 145.2ZM640.92 156V13.6H657.12V110H657.72L699.12 58.8H717.32L684.72 97.8L721.72 156H703.72L675.32 109.2L657.12 130.4V156H640.92ZM769.246 158.4C758.846 158.4 751.579 155.4 747.446 149.4C743.446 143.4 741.446 135.6 741.446 126V72.2H727.046V59.8L742.246 58.8L744.246 31.6H758.046V58.8H784.246V72.2H758.046V126.2C758.046 132.2 759.113 136.867 761.246 140.2C763.513 143.4 767.446 145 773.046 145C774.779 145 776.646 144.733 778.646 144.2C780.646 143.533 782.446 142.933 784.046 142.4L787.246 154.8C784.579 155.733 781.646 156.533 778.446 157.2C775.379 158 772.313 158.4 769.246 158.4Z" fill="#FBFBFB"/> </g> <defs> <filter id="filter0_dddd_881_412" x="0.575806" y="0.600098" width="798.67" height="295.8" filterUnits="userSpaceOnUse" color-interpolation-filters="sRGB"> <feFlood flood-opacity="0" result="BackgroundImageFix"/> <feColorMatrix in="SourceAlpha" type="matrix" values="0 0 0 0 0 0 0 0 0 0 0 0 0 0 0 0 0 0 127 0" result="hardAlpha"/> <feOffset dx="-6" dy="5"/> <feGaussianBlur stdDeviation="9"/> <feColorMatrix type="matrix" values="0 0 0 0 0.329412 0 0 0 0 0.25098 0 0 0 0 0.564706 0 0 0 0.1 0"/> <feBlend mode="normal" in2="BackgroundImageFix" result="effect1_dropShadow_881_412"/> <feColorMatrix in="SourceAlpha" type="matrix" values="0 0 0 0 0 0 0 0 0 0 0 0 0 0 0 0 0 0 127 0" result="hardAlpha"/> <feOffset dx="-24" dy="21"/> <feGaussianBlur stdDeviation="16"/> <feColorMatrix type="matrix" values="0 0 0 0 0.329412 0 0 0 0 0.25098 0 0 0 0 0.564706 0 0 0 0.09 0"/> <feBlend mode="normal" in2="effect1_dropShadow_881_412" result="effect2_dropShadow_881_412"/> <feColorMatrix in="SourceAlpha" type="matrix" values="0 0 0 0 0 0 0 0 0 0 0 0 0 0 0 0 0 0 127 0" result="hardAlpha"/> <feOffset dx="-54" dy="48"/> <feGaussianBlur stdDeviation="21.5"/> <feColorMatrix type="matrix" values="0 0 0 0 0.329412 0 0 0 0 0.25098 0 0 0 0 0.564706 0 0 0 0.05 0"/> <feBlend mode="normal" in2="effect2_dropShadow_881_412" result="effect3_dropShadow_881_412"/> <feColorMatrix in="SourceAlpha" type="matrix" values="0 0 0 0 0 0 0 0 0 0 0 0 0 0 0 0 0 0 127 0" result="hardAlpha"/> <feOffset dx="-96" dy="86"/> <feGaussianBlur stdDeviation="26"/> <feColorMatrix type="matrix" values="0 0 0 0 0.329412 0 0 0 0 0.25098 0 0 0 0 0.564706 0 0 0 0.01 0"/> <feBlend mode="normal" in2="effect3_dropShadow_881_412" result="effect4_dropShadow_881_412"/> <feBlend mode="normal" in="SourceGraphic" in2="effect4_dropShadow_881_412" result="shape"/> </filter> </defs> </svg>