<svg xmlns="http://www.w3.org/2000/svg" fill="none" viewBox="79.242 0 763.758 218.4423076923077" style="max-height: 500px" width="763.758" height="218.4423076923077">
<g filter="url(#filter0_dddd_0_1)">
<path fill="#FBFBFB" d="M191.576 166V23.6H207.776V120H208.376L249.776 68.8H267.976L235.376 107.8L272.376 166H254.376L225.976 119.2L207.776 140.4V166H191.576ZM327.884 168.4C320.017 168.4 312.617 166.4 305.684 162.4C298.884 158.4 293.35 152.6 289.084 145C284.95 137.4 282.884 128.267 282.884 117.6C282.884 106.667 284.95 97.4 289.084 89.8C293.35 82.2 298.884 76.4 305.684 72.4C312.617 68.4 320.017 66.4 327.884 66.4C335.884 66.4 343.284 68.4 350.084 72.4C356.884 76.4 362.35 82.2 366.484 89.8C370.75 97.4 372.884 106.667 372.884 117.6C372.884 128.267 370.75 137.4 366.484 145C362.35 152.6 356.884 158.4 350.084 162.4C343.284 166.4 335.884 168.4 327.884 168.4ZM327.884 154.8C336.284 154.8 343.017 151.4 348.084 144.6C353.284 137.667 355.884 128.667 355.884 117.6C355.884 106.4 353.284 97.3333 348.084 90.4C343.017 83.4667 336.284 80 327.884 80C319.617 80 312.884 83.4667 307.684 90.4C302.484 97.3333 299.884 106.4 299.884 117.6C299.884 128.667 302.484 137.667 307.684 144.6C312.884 151.4 319.617 154.8 327.884 154.8ZM401.482 166V68.8H415.082L416.482 82.8H417.082C421.749 78.1333 426.682 74.2667 431.882 71.2C437.082 68 443.015 66.4 449.682 66.4C459.949 66.4 467.415 69.6667 472.082 76.2C476.882 82.6 479.282 92 479.282 104.4V166H462.882V106.6C462.882 97.5333 461.415 90.9333 458.482 86.8C455.549 82.6667 450.882 80.6 444.482 80.6C439.549 80.6 435.082 81.8667 431.082 84.4C427.215 86.9333 422.815 90.6667 417.882 95.6V166H401.482ZM544.457 168.4C534.057 168.4 526.79 165.4 522.657 159.4C518.657 153.4 516.657 145.6 516.657 136V82.2H502.257V69.8L517.457 68.8L519.457 41.6H533.257V68.8H559.457V82.2H533.257V136.2C533.257 142.2 534.324 146.867 536.457 150.2C538.724 153.4 542.657 155 548.257 155C549.99 155 551.857 154.733 553.857 154.2C555.857 153.533 557.657 152.933 559.257 152.4L562.457 164.8C559.79 165.733 556.857 166.533 553.657 167.2C550.59 168 547.524 168.4 544.457 168.4ZM602.538 168.4C594.405 168.4 587.605 166 582.138 161.2C576.805 156.267 574.138 149.467 574.138 140.8C574.138 130.133 578.872 122 588.338 116.4C597.938 110.667 613.072 106.667 633.738 104.4C633.738 100.267 633.138 96.3333 631.938 92.6C630.872 88.8667 628.872 85.8667 625.938 83.6C623.138 81.2 619.072 80 613.738 80C608.138 80 602.872 81.0667 597.938 83.2C593.005 85.3333 588.605 87.7333 584.738 90.4L578.338 79C582.872 76.0667 588.405 73.2667 594.938 70.6C601.605 67.8 608.805 66.4 616.538 66.4C628.405 66.4 637.005 70.0667 642.338 77.4C647.672 84.6 650.338 94.2667 650.338 106.4V166H636.738L635.338 154.4H634.738C630.205 158.133 625.205 161.4 619.738 164.2C614.405 167 608.672 168.4 602.538 168.4ZM607.338 155.2C612.005 155.2 616.405 154.067 620.538 151.8C624.672 149.533 629.072 146.333 633.738 142.2V115.2C617.605 117.2 606.272 120.2 599.738 124.2C593.338 128.2 590.138 133.333 590.138 139.6C590.138 145.067 591.805 149.067 595.138 151.6C598.472 154 602.538 155.2 607.338 155.2ZM683.92 166V23.6H700.12V120H700.72L742.12 68.8H760.32L727.72 107.8L764.72 166H746.72L718.32 119.2L700.12 140.4V166H683.92ZM812.246 168.4C801.846 168.4 794.579 165.4 790.446 159.4C786.446 153.4 784.446 145.6 784.446 136V82.2H770.046V69.8L785.246 68.8L787.246 41.6H801.046V68.8H827.246V82.2H801.046V136.2C801.046 142.2 802.113 146.867 804.246 150.2C806.513 153.4 810.446 155 816.046 155C817.779 155 819.646 154.733 821.646 154.2C823.646 153.533 825.446 152.933 827.046 152.4L830.246 164.8C827.579 165.733 824.646 166.533 821.446 167.2C818.379 168 815.313 168.4 812.246 168.4Z"/>
</g>
<g filter="url(#filter1_dddd_0_1)">
<path fill="#FBFBFB" d="M191.576 166V23.6H207.776V120H208.376L249.776 68.8H267.976L235.376 107.8L272.376 166H254.376L225.976 119.2L207.776 140.4V166H191.576ZM327.884 168.4C320.017 168.4 312.617 166.4 305.684 162.4C298.884 158.4 293.35 152.6 289.084 145C284.95 137.4 282.884 128.267 282.884 117.6C282.884 106.667 284.95 97.4 289.084 89.8C293.35 82.2 298.884 76.4 305.684 72.4C312.617 68.4 320.017 66.4 327.884 66.4C335.884 66.4 343.284 68.4 350.084 72.4C356.884 76.4 362.35 82.2 366.484 89.8C370.75 97.4 372.884 106.667 372.884 117.6C372.884 128.267 370.75 137.4 366.484 145C362.35 152.6 356.884 158.4 350.084 162.4C343.284 166.4 335.884 168.4 327.884 168.4ZM327.884 154.8C336.284 154.8 343.017 151.4 348.084 144.6C353.284 137.667 355.884 128.667 355.884 117.6C355.884 106.4 353.284 97.3333 348.084 90.4C343.017 83.4667 336.284 80 327.884 80C319.617 80 312.884 83.4667 307.684 90.4C302.484 97.3333 299.884 106.4 299.884 117.6C299.884 128.667 302.484 137.667 307.684 144.6C312.884 151.4 319.617 154.8 327.884 154.8ZM401.482 166V68.8H415.082L416.482 82.8H417.082C421.749 78.1333 426.682 74.2667 431.882 71.2C437.082 68 443.015 66.4 449.682 66.4C459.949 66.4 467.415 69.6667 472.082 76.2C476.882 82.6 479.282 92 479.282 104.4V166H462.882V106.6C462.882 97.5333 461.415 90.9333 458.482 86.8C455.549 82.6667 450.882 80.6 444.482 80.6C439.549 80.6 435.082 81.8667 431.082 84.4C427.215 86.9333 422.815 90.6667 417.882 95.6V166H401.482ZM544.457 168.4C534.057 168.4 526.79 165.4 522.657 159.4C518.657 153.4 516.657 145.6 516.657 136V82.2H502.257V69.8L517.457 68.8L519.457 41.6H533.257V68.8H559.457V82.2H533.257V136.2C533.257 142.2 534.324 146.867 536.457 150.2C538.724 153.4 542.657 155 548.257 155C549.99 155 551.857 154.733 553.857 154.2C555.857 153.533 557.657 152.933 559.257 152.4L562.457 164.8C559.79 165.733 556.857 166.533 553.657 167.2C550.59 168 547.524 168.4 544.457 168.4ZM602.538 168.4C594.405 168.4 587.605 166 582.138 161.2C576.805 156.267 574.138 149.467 574.138 140.8C574.138 130.133 578.872 122 588.338 116.4C597.938 110.667 613.072 106.667 633.738 104.4C633.738 100.267 633.138 96.3333 631.938 92.6C630.872 88.8667 628.872 85.8667 625.938 83.6C623.138 81.2 619.072 80 613.738 80C608.138 80 602.872 81.0667 597.938 83.2C593.005 85.3333 588.605 87.7333 584.738 90.4L578.338 79C582.872 76.0667 588.405 73.2667 594.938 70.6C601.605 67.8 608.805 66.4 616.538 66.4C628.405 66.4 637.005 70.0667 642.338 77.4C647.672 84.6 650.338 94.2667 650.338 106.4V166H636.738L635.338 154.4H634.738C630.205 158.133 625.205 161.4 619.738 164.2C614.405 167 608.672 168.4 602.538 168.4ZM607.338 155.2C612.005 155.2 616.405 154.067 620.538 151.8C624.672 149.533 629.072 146.333 633.738 142.2V115.2C617.605 117.2 606.272 120.2 599.738 124.2C593.338 128.2 590.138 133.333 590.138 139.6C590.138 145.067 591.805 149.067 595.138 151.6C598.472 154 602.538 155.2 607.338 155.2ZM683.92 166V23.6H700.12V120H700.72L742.12 68.8H760.32L727.72 107.8L764.72 166H746.72L718.32 119.2L700.12 140.4V166H683.92ZM812.246 168.4C801.846 168.4 794.579 165.4 790.446 159.4C786.446 153.4 784.446 145.6 784.446 136V82.2H770.046V69.8L785.246 68.8L787.246 41.6H801.046V68.8H827.246V82.2H801.046V136.2C801.046 142.2 802.113 146.867 804.246 150.2C806.513 153.4 810.446 155 816.046 155C817.779 155 819.646 154.733 821.646 154.2C823.646 153.533 825.446 152.933 827.046 152.4L830.246 164.8C827.579 165.733 824.646 166.533 821.446 167.2C818.379 168 815.313 168.4 812.246 168.4Z"/>
</g>
<defs>
<filter color-interpolation-filters="sRGB" filterUnits="userSpaceOnUse" height="295.8" width="798.67" y="10.6001" x="43.5758" id="filter0_dddd_0_1">
<feFlood result="BackgroundImageFix" flood-opacity="0"/>
<feColorMatrix result="hardAlpha" values="0 0 0 0 0 0 0 0 0 0 0 0 0 0 0 0 0 0 127 0" type="matrix" in="SourceAlpha"/>
<feOffset dy="5" dx="-6"/>
<feGaussianBlur stdDeviation="9"/>
<feColorMatrix values="0 0 0 0 0.329412 0 0 0 0 0.25098 0 0 0 0 0.564706 0 0 0 0.1 0" type="matrix"/>
<feBlend result="effect1_dropShadow_0_1" in2="BackgroundImageFix" mode="normal"/>
<feColorMatrix result="hardAlpha" values="0 0 0 0 0 0 0 0 0 0 0 0 0 0 0 0 0 0 127 0" type="matrix" in="SourceAlpha"/>
<feOffset dy="21" dx="-24"/>
<feGaussianBlur stdDeviation="16"/>
<feColorMatrix values="0 0 0 0 0.329412 0 0 0 0 0.25098 0 0 0 0 0.564706 0 0 0 0.09 0" type="matrix"/>
<feBlend result="effect2_dropShadow_0_1" in2="effect1_dropShadow_0_1" mode="normal"/>
<feColorMatrix result="hardAlpha" values="0 0 0 0 0 0 0 0 0 0 0 0 0 0 0 0 0 0 127 0" type="matrix" in="SourceAlpha"/>
<feOffset dy="48" dx="-54"/>
<feGaussianBlur stdDeviation="21.5"/>
<feColorMatrix values="0 0 0 0 0.329412 0 0 0 0 0.25098 0 0 0 0 0.564706 0 0 0 0.05 0" type="matrix"/>
<feBlend result="effect3_dropShadow_0_1" in2="effect2_dropShadow_0_1" mode="normal"/>
<feColorMatrix result="hardAlpha" values="0 0 0 0 0 0 0 0 0 0 0 0 0 0 0 0 0 0 127 0" type="matrix" in="SourceAlpha"/>
<feOffset dy="86" dx="-96"/>
<feGaussianBlur stdDeviation="26"/>
<feColorMatrix values="0 0 0 0 0.329412 0 0 0 0 0.25098 0 0 0 0 0.564706 0 0 0 0.01 0" type="matrix"/>
<feBlend result="effect4_dropShadow_0_1" in2="effect3_dropShadow_0_1" mode="normal"/>
<feBlend result="shape" in2="effect4_dropShadow_0_1" in="SourceGraphic" mode="normal"/>
</filter>
<filter color-interpolation-filters="sRGB" filterUnits="userSpaceOnUse" height="275.8" width="841.67" y="0.600098" x="0.575806" id="filter1_dddd_0_1">
<feFlood result="BackgroundImageFix" flood-opacity="0"/>
<feColorMatrix result="hardAlpha" values="0 0 0 0 0 0 0 0 0 0 0 0 0 0 0 0 0 0 127 0" type="matrix" in="SourceAlpha"/>
<feOffset dy="3" dx="-8"/>
<feGaussianBlur stdDeviation="10"/>
<feColorMatrix values="0 0 0 0 0.411765 0 0 0 0 0.423529 0 0 0 0 0.447059 0 0 0 0.07 0" type="matrix"/>
<feBlend result="effect1_dropShadow_0_1" in2="BackgroundImageFix" mode="normal"/>
<feColorMatrix result="hardAlpha" values="0 0 0 0 0 0 0 0 0 0 0 0 0 0 0 0 0 0 127 0" type="matrix" in="SourceAlpha"/>
<feOffset dy="13" dx="-33"/>
<feGaussianBlur stdDeviation="18"/>
<feColorMatrix values="0 0 0 0 0.411765 0 0 0 0 0.423529 0 0 0 0 0.447059 0 0 0 0.06 0" type="matrix"/>
<feBlend result="effect2_dropShadow_0_1" in2="effect1_dropShadow_0_1" mode="normal"/>
<feColorMatrix result="hardAlpha" values="0 0 0 0 0 0 0 0 0 0 0 0 0 0 0 0 0 0 127 0" type="matrix" in="SourceAlpha"/>
<feOffset dy="29" dx="-75"/>
<feGaussianBlur stdDeviation="24"/>
<feColorMatrix values="0 0 0 0 0.411765 0 0 0 0 0.423529 0 0 0 0 0.447059 0 0 0 0.04 0" type="matrix"/>
<feBlend result="effect3_dropShadow_0_1" in2="effect2_dropShadow_0_1" mode="normal"/>
<feColorMatrix result="hardAlpha" values="0 0 0 0 0 0 0 0 0 0 0 0 0 0 0 0 0 0 127 0" type="matrix" in="SourceAlpha"/>
<feOffset dy="51" dx="-134"/>
<feGaussianBlur stdDeviation="28.5"/>
<feColorMatrix values="0 0 0 0 0.411765 0 0 0 0 0.423529 0 0 0 0 0.447059 0 0 0 0.01 0" type="matrix"/>
<feBlend result="effect4_dropShadow_0_1" in2="effect3_dropShadow_0_1" mode="normal"/>
<feBlend result="shape" in2="effect4_dropShadow_0_1" in="SourceGraphic" mode="normal"/>
</filter>
</defs>
</svg>